<svg xmlns="http://www.w3.org/2000/svg" xmlns:xlink="http://www.w3.org/1999/xlink" width="1920" height="433" viewBox="0 0 1920 433" fill="none"><g opacity="1" transform="translate(0 0)  rotate(0 960 216.3013898410025)"><g opacity="1" transform="translate(1380 0)  rotate(0 270 195)"><path id="矩形 1" fill-rule="evenodd" style="fill:#30AA69" transform="translate(0 71)  rotate(0 270 76.5)" opacity="1" d="M76.5,153L540,153L540,0L76.5,0C56.21,0 36.75,8.06 22.41,22.41C8.06,36.75 0,56.21 0,76.5L0,76.5C0,96.79 8.06,116.25 22.41,130.59C36.75,144.94 56.21,153 76.5,153Z " /><path id="矩形 1" fill-rule="evenodd" style="fill:#F1AA37" transform="translate(170 0)  rotate(0 185.00000000000003 53.5)" opacity="1" d="M53.5,107L370,107L370,0L53.5,0C39.31,0 25.7,5.64 15.67,15.67C5.64,25.7 0,39.31 0,53.5L0,53.5C0,67.69 5.64,81.3 15.67,91.33C25.7,101.36 39.31,107 53.5,107Z " /><path id="矩形 1" fill-rule="evenodd" style="fill:#D54562" transform="translate(121 171)  rotate(0 209.49999999999997 59)" opacity="1" d="M59,118L419,118L419,0L59,0C43.35,0 28.35,6.22 17.28,17.28C6.22,28.35 0,43.35 0,59L0,59C0,74.65 6.22,89.65 17.28,100.72C28.35,111.78 43.35,118 59,118Z " /><path id="矩形 1" fill-rule="evenodd" style="fill:#F1AA37" transform="translate(288 262)  rotate(0 126 40)" opacity="1" d="M40,80L252,80L252,0L40,0C29.39,0 19.22,4.21 11.72,11.72C4.21,19.22 0,29.39 0,40L0,40C0,50.61 4.21,60.78 11.72,68.28C19.22,75.79 29.39,80 40,80Z " /><path id="矩形 1" fill-rule="evenodd" style="fill:#D54562" transform="translate(42 15)  rotate(0 44.00000000000001 13.5)" opacity="1" d="M13.5,27L74.5,27C78.08,27 81.51,25.58 84.05,23.05C86.58,20.51 88,17.08 88,13.5L88,13.5C88,9.92 86.58,6.49 84.05,3.95C81.51,1.42 78.08,0 74.5,0L13.5,0C9.92,0 6.49,1.42 3.95,3.95C1.42,6.49 0,9.92 0,13.5L0,13.5C0,17.08 1.42,20.51 3.95,23.05C6.49,25.58 9.92,27 13.5,27Z " /><path id="矩形 1" fill-rule="evenodd" style="fill:#30AA69" transform="translate(179.21203830369353 338)  rotate(0 38.59781121751026 13.5)" opacity="1" d="M13.5,27L63.7,27C67.28,27 70.71,25.58 73.25,23.05C75.78,20.51 77.2,17.08 77.2,13.5L77.2,13.5C77.2,9.92 75.78,6.49 73.25,3.95C70.71,1.42 67.28,0 63.7,0L13.5,0C9.92,0 6.49,1.42 3.95,3.95C1.42,6.49 0,9.92 0,13.5L0,13.5C0,17.08 1.42,20.51 3.95,23.05C6.49,25.58 9.92,27 13.5,27Z " /><path id="矩形 1" fill-rule="evenodd" style="fill:#378DF1" transform="translate(33.69 264)  rotate(0 22.500000000000004 22.5)" opacity="1" d="M22.5,45L22.5,45C28.47,45 34.19,42.63 38.41,38.41C42.63,34.19 45,28.47 45,22.5L45,22.5C45,16.53 42.63,10.81 38.41,6.59C34.19,2.37 28.47,0 22.5,0L22.5,0C16.53,0 10.81,2.37 6.59,6.59C2.37,10.81 0,16.53 0,22.5L0,22.5C0,28.47 2.37,34.19 6.59,38.41C10.81,42.63 16.53,45 22.5,45Z " /><path id="矩形 1" fill-rule="evenodd" style="fill:#378DF1" transform="translate(374.23 332)  rotate(0 82.88372093023256 29)" opacity="1" d="M29,58L165.77,58L165.77,0L29,0C21.31,0 13.93,3.06 8.49,8.49C3.06,13.93 0,21.31 0,29L0,29C0,36.69 3.06,44.07 8.49,49.51C13.93,54.94 21.31,58 29,58Z " /></g><g opacity="1" transform="translate(0 67)  rotate(0 245 182.8013898410025)"><path id="矩形 2" fill-rule="evenodd" style="fill:#368CF1" transform="translate(0 102)  rotate(0 245 81.5)" opacity="1" d="M0,163L408.5,163C430.12,163 450.84,154.41 466.13,139.13C481.41,123.84 490,103.12 490,81.5L490,81.5C490,59.88 481.41,39.16 466.13,23.87C450.84,8.59 430.12,0 408.5,0L0,0L0,163Z " /><path id="矩形 2" fill-rule="evenodd" style="fill:#F1A936" transform="translate(0 59)  rotate(0 203.5 43)" opacity="1" d="M0,86L364,86C375.4,86 386.34,81.47 394.41,73.41C402.47,65.34 407,54.4 407,43L407,43C407,31.6 402.47,20.66 394.41,12.59C386.34,4.53 375.4,0 364,0L0,0L0,86Z " /><path id="圆形 1" fill-rule="evenodd" style="fill:#368CF1" transform="translate(383.99999999999994 0)  rotate(0 23 23)" opacity="1" d="M23,0C10.3,0 0,10.3 0,23C0,35.7 10.3,46 23,46C35.7,46 46,35.7 46,23C46,10.3 35.7,0 23,0Z " /><path id="矩形 2" fill-rule="evenodd" style="fill:#2FA968" transform="translate(0 0)  rotate(0 132.82608695652172 38)" opacity="1" d="M0,76L227.65,76C248.64,76 265.65,58.99 265.65,38L265.65,38C265.65,17.01 248.64,0 227.65,0L0,0L0,76Z " /><path id="矩形 2" fill-rule="evenodd" style="fill:#D54461" transform="translate(284 8)  rotate(0 40.00000000000001 11.499999999999998)" opacity="1" d="M11.5,23L68.5,23C71.55,23 74.48,21.79 76.63,19.63C78.79,17.48 80,14.55 80,11.5L80,11.5C80,8.45 78.79,5.52 76.63,3.37C74.48,1.21 71.55,0 68.5,0L11.5,0C8.45,0 5.52,1.21 3.37,3.37C1.21,5.52 0,8.45 0,11.5L0,11.5C0,14.55 1.21,17.48 3.37,19.63C5.52,21.79 8.45,23 11.5,23Z " /><path id="矩形 2" fill-rule="evenodd" style="fill:#D54461" transform="translate(0 231)  rotate(0 163.5 49.99125385112812)" opacity="1" d="M0,99.98L277.01,99.98C304.62,99.98 327,77.6 327,49.99L327,49.99C327,22.38 304.62,0 277.01,0L0,0L0,99.98Z " /><path id="矩形 2" fill-rule="evenodd" style="fill:#F1A936" transform="translate(0 303)  rotate(0 90.62509677419355 31.30138984100249)" opacity="1" d="M0,62.6L149.95,62.6C167.24,62.6 181.25,48.59 181.25,31.3L181.25,31.3C181.25,14.01 167.24,0 149.95,0L0,0L0,62.6Z " /><path id="矩形 2" fill-rule="evenodd" style="fill:#2FA968" transform="translate(284 293)  rotate(0 60.84291725105189 10)" opacity="1" d="M10,20L111.69,20C114.34,20 116.89,18.95 118.76,17.07C120.64,15.2 121.69,12.65 121.69,10L121.69,10C121.69,7.35 120.64,4.8 118.76,2.93C116.89,1.05 114.34,0 111.69,0L10,0C7.35,0 4.8,1.05 2.93,2.93C1.05,4.8 0,7.35 0,10L0,10C0,12.65 1.05,15.2 2.93,17.07C4.8,18.95 7.35,20 10,20Z " /></g></g></svg>